<svg width="148" height="35" viewBox="0 0 148 35" fill="none" xmlns="http://www.w3.org/2000/svg">
<path d="M30.209 7.44468V5.79688H48.4285V7.44468H40.1958V34.5607H38.3782V7.44468H30.209Z" fill="#209BA8"/>
<path d="M65.8909 34.5629V25.8486C65.8909 22.9277 65.1581 20.6072 63.6925 18.887C62.2268 17.1668 60.2662 16.3067 57.8105 16.3067C56.7284 16.2798 55.6528 16.4821 54.6535 16.9007C53.6541 17.3193 52.7534 17.9447 52.0098 18.7362C50.4596 20.3577 49.6828 22.3861 49.6794 24.8216C49.6794 27.2844 50.4461 29.3197 51.9794 30.9275C53.5127 32.5353 55.4589 33.3383 57.8181 33.3366C59.0707 33.3482 60.3092 33.0703 61.4382 32.5242C62.6325 31.925 63.6999 31.0982 64.581 30.0895V32.3045C63.6606 33.1555 62.5904 33.8261 61.4255 34.2819C60.2741 34.724 59.0505 34.9449 57.8181 34.9333C56.4636 34.9466 55.1196 34.6913 53.863 34.1822C52.6573 33.6888 51.5721 32.9384 50.6822 31.9826C49.7901 31.0394 49.0891 29.9305 48.6183 28.7176C48.1411 27.4973 47.8982 26.1969 47.9024 24.8855C47.9024 21.9603 48.8366 19.5487 50.6948 17.653C52.5531 15.7574 54.9038 14.7994 57.742 14.7994C59.4416 14.7814 61.1165 15.2102 62.6009 16.0435C64.1009 16.9038 65.3582 18.1348 66.2539 19.6202C66.7455 20.4548 67.0939 21.3669 67.2846 22.318C67.511 23.5203 67.6173 24.7425 67.6019 25.9662V34.5629H65.8909Z" fill="#209BA8"/>
<path d="M72.7012 34.5632V5.79932H74.3589V18.596C75.0611 17.4185 76.0468 16.438 77.225 15.7449C78.3904 15.0707 79.714 14.7232 81.0582 14.7384C83.3785 14.7384 85.2342 15.5048 86.6 17.0581C87.9657 18.6114 88.6613 20.7139 88.6613 23.376V34.5632H86.996V23.0541C86.996 21.0741 86.4451 19.457 85.3231 18.2C84.7911 17.5941 84.1334 17.113 83.3965 16.7908C82.6596 16.4686 81.8614 16.313 81.0582 16.3351C80.1458 16.3117 79.2397 16.4949 78.4071 16.8712C77.5744 17.2475 76.8364 17.8073 76.2476 18.5092C74.9884 19.9415 74.3589 21.775 74.3589 24.0095V34.576L72.7012 34.5632Z" fill="#209BA8"/>
<path d="M110.37 34.5632V25.8489C110.37 22.928 109.636 20.6074 108.167 18.8872C106.697 17.1679 104.745 16.3069 102.285 16.3069C101.204 16.2797 100.129 16.4819 99.1311 16.9005C98.133 17.3191 97.2337 17.9447 96.4918 18.7365C94.9365 20.3579 94.1597 22.3864 94.1614 24.8219C94.1614 27.2847 94.923 29.32 96.4461 30.9277C97.9845 32.5321 99.9189 33.3369 102.285 33.3369C103.541 33.3471 104.782 33.0692 105.915 32.5245C107.107 31.9262 108.171 31.0992 109.048 30.0898V32.3048C107.212 34.0209 104.791 34.962 102.285 34.9336C100.931 34.9466 99.5881 34.6914 98.3323 34.1825C97.1266 33.6891 96.0414 32.9387 95.1515 31.9829C94.2578 31.0405 93.5558 29.9313 93.0851 28.7179C92.6091 27.4972 92.3662 26.1971 92.3692 24.8858C92.3692 21.9597 93.3 19.5489 95.1616 17.6533C97.0233 15.7577 99.3681 14.8064 102.196 14.7996C103.899 14.7813 105.577 15.2101 107.065 16.0438C108.566 16.9005 109.821 18.1324 110.711 19.6204C111.206 20.453 111.555 21.3658 111.741 22.3182C111.976 23.5264 112.084 24.756 112.064 25.9869V34.5836L110.37 34.5632Z" fill="#209BA8"/>
<path d="M117.172 34.5629V15.1469H118.835V18.9432C119.541 17.7422 120.54 16.7431 121.739 16.041C122.95 15.3784 124.311 15.0431 125.689 15.0677C125.826 15.0677 125.976 15.0677 126.151 15.0855C126.326 15.1034 126.56 15.1264 126.836 15.1724V16.7947H126.725C126.085 16.741 125.658 16.7104 125.455 16.7104C124.557 16.6886 123.665 16.8691 122.844 17.2386C122.024 17.6081 121.296 18.1573 120.713 18.8461C119.472 20.2615 118.845 22.0779 118.845 24.2903V34.5706L117.172 34.5629Z" fill="#209BA8"/>
<path d="M146.014 34.5633V25.849C146.014 22.9281 145.281 20.6075 143.813 18.8874C142.346 17.1672 140.382 16.3071 137.921 16.3071C136.84 16.2804 135.766 16.483 134.768 16.9016C133.77 17.3201 132.87 17.9454 132.128 18.7366C130.573 20.358 129.794 22.3865 129.793 24.822C129.793 27.2848 130.561 29.3201 132.098 30.9279C133.634 32.5357 135.576 33.3353 137.921 33.3268C139.177 33.339 140.419 33.061 141.552 32.5144C142.745 31.917 143.811 31.0898 144.689 30.0797V32.3049C142.852 34.0217 140.428 34.9596 137.921 34.9235C136.568 34.936 135.225 34.6808 133.969 34.1724C132.764 33.6765 131.68 32.9264 130.788 31.9728C129.898 31.0282 129.198 29.9195 128.727 28.7078C128.251 27.4871 128.01 26.1868 128.016 24.8757C128.016 21.9496 128.947 19.5388 130.808 17.6432C132.67 15.7476 135.015 14.793 137.845 14.7793C139.546 14.7616 141.223 15.1905 142.709 16.0235C144.209 16.8822 145.465 18.1136 146.357 19.6001C146.852 20.4339 147.203 21.3461 147.395 22.2979C147.623 23.507 147.729 24.7361 147.713 25.9666V34.5633H146.014Z" fill="#209BA8"/>
<path d="M9.56892 2.60059C9.56892 2.60059 2.24762 6.73161 4.15918 19.1809C4.15918 19.1809 5.9108 28.5031 15.032 33.0864C15.032 33.0864 0.671142 29.8393 0.054264 16.2787C0.054264 16.2787 -1.30387 6.28453 9.56892 2.60059Z" fill="#209BA8"/>
<path d="M17.0452 2.68488C15.7886 2.12794 14.1614 1.86736 12.0543 2.17393C11.1672 2.08252 10.2727 2.25015 9.47766 2.65678C8.96994 2.98123 6.35774 4.78488 4.88281 8.88013C5.36515 8.44072 12.364 2.4294 21.2085 8.51481C20.2492 6.29671 18.8297 4.3107 17.0452 2.68999" fill="#06716A"/>
<path d="M16.9465 2.60034C16.9465 2.60034 25.6158 9.5748 21.2773 20.969C21.2773 20.969 19.8176 25.9354 13.7402 29.4533C13.7402 29.4533 24.0952 28.3879 26.1793 16.7792C26.1793 16.7792 28.0985 6.34304 16.9465 2.60034Z" fill="#209BA8"/>
</svg>
